<svg id="a60ec38d-dc4a-456c-897b-cdb689bcdbce" data-name="Capa 1" xmlns="http://www.w3.org/2000/svg" viewBox="0 0 195.4 168.2"><g style="opacity:0.15"><polygon points="98.3 35.4 21.7 168 174.8 168 98.3 35.4" style="fill:#333"/><path d="M177.5,184.1H23.6l.2-.4L100.6,50.8l.2.4Zm-153.1-.5H176.7L100.6,51.8Z" transform="translate(-2.3 -15.9)" style="fill:gray"/></g><g style="opacity:0.15"><polygon points="77 0.5 0.4 133.1 153.5 133.1 77 0.5" style="fill:#333"/><path d="M156.3,149.2H2.3l.2-.4L79.3,15.9l.2.4ZM3.2,148.7H155.4L79.3,16.9Z" transform="translate(-2.3 -15.9)" style="fill:gray"/></g><g style="opacity:0.15"><polygon points="118.4 2.3 41.8 134.9 194.9 134.9 118.4 2.3" style="fill:#333"/><path d="M197.7,151H43.7l.3-.3,76.7-133,.2.4Zm-153.1-.5H196.8L120.7,18.7Z" transform="translate(-2.3 -15.9)" style="fill:gray"/></g><polygon points="98.3 13 21.7 145.6 174.8 145.6 98.3 13" style="fill:#333"/><path d="M177.5,161.7H23.6l.2-.3,76.8-133,.2.4Zm-153.1-.4H176.7L100.6,29.4Z" transform="translate(-2.3 -15.9)" style="fill:gray"/></svg>